<?xml version="1.0" standalone="no"?><!DOCTYPE svg PUBLIC "-//W3C//DTD SVG 1.1//EN" "http://www.w3.org/Graphics/SVG/1.1/DTD/svg11.dtd"><svg t="1523693320551" class="icon" style="" viewBox="0 0 1024 1024" version="1.1" xmlns="http://www.w3.org/2000/svg" p-id="1048" xmlns:xlink="http://www.w3.org/1999/xlink" width="200" height="200"><defs><style type="text/css"></style></defs><path d="M511.974401 0c-282.750662 0-511.974401 229.223739-511.974401 511.974401s229.223739 511.974401 511.974401 511.974402 511.974401-229.223739 511.974402-511.974402-229.223739-511.974401-511.974402-511.974401z m316.144193 744.922754a82.223089 82.223089 0 0 1-58.877056 78.882456 1138.387881 1138.387881 0 0 1-252.60817 28.452977 1136.467977 1136.467977 0 0 1-252.940953-28.542573 82.338283 82.338283 0 0 1-58.493075-78.79286v-16.639168a123.437028 123.437028 0 0 1 73.557922-112.903155 667.077046 667.077046 0 0 1 130.630269-34.942253 18.648668 18.648668 0 0 0 10.073096-30.39848c0.089596 0.166392 0.332783 0.255987 0.499175 0.332783a243.047048 243.047048 0 0 1-33.367932-52.477376c-11.519424-4.99175-22.885256-14.898455-31.038448-28.619369-15.359232-25.880306-13.40093-55.037248 4.326184-64.982351a15.013649 15.013649 0 0 1 1.753512-0.665566c0-0.921554 0-1.919904-0.089595-2.828659h-0.831959v-77.986501h0.422379a132.063797 132.063797 0 0 1 217.038748-93.358532c0.332783 0 0.588771-0.089596 0.921554-0.089595a93.627319 93.627319 0 0 1 93.524924 93.60172v78.076096h-0.831958c0 0.921554 0 1.919904-0.089596 2.828658a15.00085 15.00085 0 0 1 1.753512 0.665567c17.80391 9.983501 19.723814 39.025249 4.326184 64.982351-8.153192 13.733713-19.467827 23.627619-31.038448 28.619369a243.047048 243.047048 0 0 1-33.367932 52.477376c0.166392-0.166392 0.422379-0.166392 0.499175-0.332783a18.648668 18.648668 0 0 0 10.073097 30.449677 664.081996 664.081996 0 0 1 131.052647 35.108645 123.449828 123.449828 0 0 1 73.135543 112.736763z" fill="#D8D3F4" p-id="1049"></path></svg>